<?xml version="1.0" standalone="no"?><!DOCTYPE svg PUBLIC "-//W3C//DTD SVG 1.1//EN" "http://www.w3.org/Graphics/SVG/1.1/DTD/svg11.dtd"><svg t="1574426794773" class="icon" viewBox="0 0 1024 1024" version="1.1" xmlns="http://www.w3.org/2000/svg" p-id="5504" xmlns:xlink="http://www.w3.org/1999/xlink" width="200" height="200"><defs><style type="text/css"></style></defs><path d="M899.413 0H124.587C56.32 0 0 56.32 0 124.587v774.826C0 967.68 56.32 1024 124.587 1024h774.826C967.68 1024 1024 967.68 1024 899.413V124.587C1024 56.32 967.68 0 899.413 0z m52.907 899.413c0 29.014-23.893 52.907-52.907 52.907H124.587c-29.014 0-52.907-23.893-52.907-52.907V124.587c0-29.014 23.893-52.907 52.907-52.907h774.826c29.014 0 52.907 23.893 52.907 52.907v774.826z" p-id="5505"></path><path d="M768 460.8H563.2V256c0-29.013-22.187-51.2-51.2-51.2s-51.2 22.187-51.2 51.2v204.8H256c-29.013 0-51.2 22.187-51.2 51.2s22.187 51.2 51.2 51.2h204.8V768c0 29.013 22.187 51.2 51.2 51.2s51.2-22.187 51.2-51.2V563.2H768c29.013 0 51.2-22.187 51.2-51.2s-22.187-51.2-51.2-51.2z" p-id="5506"></path></svg>