<?xml version="1.0" standalone="no"?><!DOCTYPE svg PUBLIC "-//W3C//DTD SVG 1.1//EN" "http://www.w3.org/Graphics/SVG/1.1/DTD/svg11.dtd"><svg t="1575946716326" class="icon" viewBox="0 0 1024 1024" version="1.1" xmlns="http://www.w3.org/2000/svg" p-id="4476" xmlns:xlink="http://www.w3.org/1999/xlink" width="200" height="200"><defs><style type="text/css"></style></defs><path d="M842.78209919 454.14873189l-0.02017664-0.02017664a163.58478261 163.58478261 0 0 0 6.83987772-7.04622962c58.09952446-63.72146739 55.32523777-161.47724185-5.02856657-221.82829483a163.05835598 163.05835598 0 0 0-5.45227582-5.20557065c-64.71929348-59.00747283-164.54225543-55.2142663-224.6300951 7.91107337l-0.03943615-0.03943615-315.80003397 315.85781251 0.01467392 0.01467391c-34.71847826 35.44942255-34.47544157 92.28974185 0.65757472 127.42275815l0.15132473 0.15040761c35.18254076 35.02204484 91.91372283 35.14402174 127.27326767 0.50808424l0.01834239 0.01834239 268.51426631-268.51334919-29.06627039-29.06627038-214.19235734 214.19144023-53.54969429 53.54877717-0.01650815 0.01834239-0.02109375 0.02017662-1.80672555 1.80580843-0.04310461-0.04402174c-19.36222826 17.53899457-49.38688858 17.01715353-68.09429348-1.60495924l-0.10088316-0.10088315c-18.6890625-18.68814538-19.25951087-48.79076087-1.69667119-68.18600543l-0.0467731-0.04585598 55.39035327-55.39127038 189.95380435-189.95380435 72.27911004-72.33597147 0.02751359 0.02659647c21.34595788-22.40706522 50.01419837-35.49619565 81.02934783-36.92873641 31.91300951-1.47381114 62.48977582 9.56830843 86.09735054 31.0921875a124.68240489 124.68240489 0 0 1 4.08118206 3.89592391l0.00275136 0.00275135 0.00183424 0.00275136c21.75407609 21.75315896 34.14802989 50.72588315 34.90098506 81.58328805 0.7547894 30.94636549-10.32034647 60.59317255-31.18665081 83.47805707a122.31165081 122.31165081 0 0 1-5.83288044 5.96677989l0.02567935 0.02567934-72.27085598 72.32863452-150.61762907 150.6185462-96.29480299 96.29480298-0.42462637 0.42462636-0.04769021-0.04769021c-33.01905571 31.32788722-75.70180027 49.5611413-121.62839674 51.68060461-50.62133153 2.33773777-99.12228261-15.17832881-136.5701087-49.32085597a195.39324049 195.39324049 0 0 1-6.46110734-6.1685462c-34.52038043-34.51946331-54.18800951-80.48366168-55.38393342-129.42666441-1.1995924-49.09065896 16.37058424-96.11871603 49.46942934-132.42289402 0.78322011-0.85750679 1.57744565-1.70033968 2.37350544-2.54042119l-0.06236413-0.06328125 0.95013587-0.95013587 270.61813859-270.61813859-29.0671875-29.06627038-270.61447011 270.61538723 0.03393343 0.03485054a234.23783968 234.23783968 0 0 0-4.60669159 4.89191576c-83.44687499 91.52486414-79.46107337 231.92669837 7.22231658 318.61100544a234.91834239 234.91834239 0 0 0 7.83220109 7.47911005c90.40139266 82.42153533 228.4875 79.52618886 315.39008152-4.09035326l0.04402174 0.04402174 319.48135191-319.53913043z" p-id="4477"></path></svg>