<?xml version="1.0" standalone="no"?><!DOCTYPE svg PUBLIC "-//W3C//DTD SVG 1.1//EN" "http://www.w3.org/Graphics/SVG/1.1/DTD/svg11.dtd"><svg t="1569336653489" class="icon" viewBox="0 0 1024 1024" version="1.1" xmlns="http://www.w3.org/2000/svg" p-id="4447" xmlns:xlink="http://www.w3.org/1999/xlink" width="200" height="200"><defs><style type="text/css"></style></defs><path d="M869.898 595.954c-15.331 0-27.874 12.543-27.874 27.874v39.922h-0.001v237.5H121.014v-776h332.631v-0.034h128.899c16.491 0 29.983-13.492 29.983-29.983S599.035 65.25 582.544 65.25h-461.53c-30.661 0-55.748 27-55.748 60v776c0 33 25.087 60 55.748 60h721.009c30.661 0 55.748-27 55.748-60V792.997l0.001-0.043V623.828c0-15.331-12.543-27.874-27.874-27.874z" p-id="4448"></path><path d="M952.522 295.341a30.213 30.213 0 0 0-1.686-1.549L839.452 182.404c-11.661-11.662-30.742-11.662-42.403 0-11.66 11.66-11.66 30.741 0 42.401l66.3 66.302H713.881c-111.357 0-217.122 42.827-297.81 120.591-80.459 77.543-127.2 181.247-131.611 292.007-0.66 16.555 12.227 30.511 28.782 31.17 0.407 0.016 0.811 0.023 1.215 0.023 16.017 0 29.312-12.658 29.955-28.806 3.792-95.228 44.028-184.437 113.295-251.193 69.448-66.932 160.426-103.792 256.174-103.792h140.474l-57.306 57.308c-11.66 11.66-11.66 30.741 0 42.401 11.661 11.661 30.742 11.661 42.403 0l111.383-111.387a29.902 29.902 0 0 0 1.687-1.55c5.847-5.847 8.761-13.561 8.743-21.269 0.018-7.708-2.896-15.422-8.743-21.269z" p-id="4449"></path></svg>