<svg t="1568018046994" class="icon" viewBox="0 0 1024 1024" version="1.1" xmlns="http://www.w3.org/2000/svg" p-id="2216" width="200" height="200"><path d="M76.608 482.56L512 669.184l435.392-186.624a32 32 0 1 1 25.216 58.88l-448 192a32 32 0 0 1-25.216 0l-448-192a32 32 0 0 1 25.216-58.88zM512 861.184l435.392-186.624a32 32 0 0 1 25.216 58.88l-448 192a32 32 0 0 1-25.216 0l-448-192a32 32 0 1 1 25.216-58.88L512 861.184zM499.392 98.56a32 32 0 0 1 25.216 0l448 192a32 32 0 0 1 0 58.88l-448 192a32 32 0 0 1-25.216 0l-448-192a32 32 0 0 1 0-58.88l448-192zM512 162.816L145.28 320 512 477.184 878.72 320 512 162.816z" p-id="2217"></path></svg>