<?xml version="1.0" standalone="no"?><!DOCTYPE svg PUBLIC "-//W3C//DTD SVG 1.1//EN" "http://www.w3.org/Graphics/SVG/1.1/DTD/svg11.dtd"><svg t="1568861196490" class="icon" viewBox="0 0 1024 1024" version="1.1" xmlns="http://www.w3.org/2000/svg" p-id="20581" xmlns:xlink="http://www.w3.org/1999/xlink" width="200" height="200"><defs><style type="text/css"></style></defs><path d="M445.1328 325.8368a35.3792 35.3792 0 0 1-35.84-34.9184c0-19.3024 16.0256-34.9184 35.84-34.9184H732.16c19.8144 0 35.8912 15.616 35.8912 34.9184a35.3792 35.3792 0 0 1-35.84 34.9184H445.0816z m-14.336 195.4816a35.3792 35.3792 0 0 1-35.84-34.9184c0-19.3024 16.0256-34.9184 35.84-34.9184h301.312c19.8144 0 35.8912 15.616 35.8912 34.9184a35.3792 35.3792 0 0 1-35.84 34.9184H430.7456zM283.0336 388.608l44.3392 68.7104a34.3552 34.3552 0 0 1-11.264 48.128 36.4544 36.4544 0 0 1-49.5104-11.008l-56.32-87.2448a34.0992 34.0992 0 0 1 0-37.1712l56.32-87.2448a36.4544 36.4544 0 0 1 49.4592-11.008c16.7936 10.24 21.8624 31.7952 11.264 48.128l-44.288 68.7104zM251.4432 716.8a35.3792 35.3792 0 0 1-35.84-34.9184c0-19.2512 16.0256-34.9184 35.84-34.9184h480.6656c19.8144 0 35.8912 15.6672 35.8912 34.9184a35.3792 35.3792 0 0 1-35.84 34.9184H251.392z" p-id="20582"></path></svg>