<svg t="1568018951291" class="icon" viewBox="0 0 1024 1024" version="1.1" xmlns="http://www.w3.org/2000/svg" p-id="12409" width="200" height="200"><path d="M128 853.333333a42.666667 42.666667 0 0 0 42.666667 42.666667h682.666666a42.666667 42.666667 0 0 0 42.666667-42.666667V384c0-0.682667-0.384-1.194667-0.426667-1.834667a42.197333 42.197333 0 0 0-3.072-13.952c-0.554667-1.322667-1.024-2.602667-1.706666-3.84a42.581333 42.581333 0 0 0-10.112-13.184l-256-213.333333a42.752 42.752 0 0 0-11.776-6.741333c-1.28-0.512-2.688-0.725333-4.010667-1.109334a43.733333 43.733333 0 0 0-9.344-1.621333C598.784 128.341333 598.101333 128 597.333333 128H170.666667a42.666667 42.666667 0 0 0-42.666667 42.666667v682.666666zM640 261.802667L735.445333 341.333333H640V261.802667zM213.333333 213.333333h341.333334v170.666667a42.666667 42.666667 0 0 0 42.666666 42.666667h213.333334v384H213.333333V213.333333z" fill="" p-id="12410"></path><path d="M298.666667 426.666667h85.333333v298.666666H298.666667z m170.666666 85.333333h85.333334v213.333333h-85.333334z m170.666667 85.333333h85.333333v128h-85.333333z" fill="" p-id="12411"></path></svg>