<?xml version="1.0" standalone="no"?><!DOCTYPE svg PUBLIC "-//W3C//DTD SVG 1.1//EN" "http://www.w3.org/Graphics/SVG/1.1/DTD/svg11.dtd"><svg t="1574672624261" class="icon" viewBox="0 0 1024 1024" version="1.1" xmlns="http://www.w3.org/2000/svg" p-id="1469" xmlns:xlink="http://www.w3.org/1999/xlink" width="200" height="200"><defs><style type="text/css"></style></defs><path d="M634.9 540.5H940c12.2 0 22-9.8 22-22V213.3c0-12.2-9.8-22-22-22s-22 9.8-22 22v283.2H634.9c-12.2 0-22 9.8-22 22 0 12.1 9.8 22 22 22z" p-id="1470"></path><path d="M491.7 941.8c12.2 0 22-9.8 22-22s-9.8-22-22-22c-212.3 0-385.1-172.8-385.1-385.1s172.8-385.1 385.1-385.1 385.1 172.8 385.1 385.1c0 12.1 9.8 22 22 22s22-9.9 22-22c0-57.9-11.3-114.1-33.7-167-21.6-51.1-52.5-97-91.9-136.4-39.4-39.4-85.3-70.3-136.4-91.9-52.9-22.4-109.1-33.7-167-33.7s-114.1 11.3-167 33.7c-51.1 21.6-97 52.5-136.4 91.9-39.4 39.4-70.3 85.3-91.9 136.4-22.4 52.9-33.7 109.1-33.7 167 0 57.9 11.3 114.1 33.7 167 21.6 51.1 52.5 97 91.9 136.4s85.3 70.3 136.4 91.9c52.8 22.5 109 33.8 166.9 33.8z" p-id="1471"></path></svg>