<?xml version="1.0" standalone="no"?><!DOCTYPE svg PUBLIC "-//W3C//DTD SVG 1.1//EN" "http://www.w3.org/Graphics/SVG/1.1/DTD/svg11.dtd"><svg t="1574475469667" class="icon" viewBox="0 0 1024 1024" version="1.1" xmlns="http://www.w3.org/2000/svg" p-id="7025" xmlns:xlink="http://www.w3.org/1999/xlink" width="200" height="200"><defs><style type="text/css"></style></defs><path d="M640 768 384 768 384 448 149.824 448l364.8-441.6 364.8 441.6L640 448 640 768zM448 704l128 0L576 384l175.424 0-236.8-281.6L277.824 384 448 384 448 704z" p-id="7026"></path><path d="M873.792 1024 150.208 1024C66.24 1024 0 933.568 0 849.536L0 423.168C0 339.2 64 268.096 128 268.096l0 58.176c0 0-64 38.784-64 90.432l0 426.368C64 894.784 98.496 960 150.208 960l723.584 0C925.504 960 960 901.248 960 849.536L960 423.168c0-51.712-64-90.432-64-90.432L896 274.56c64 0 128 71.04 128 155.072l0 426.368C1024 933.568 957.76 1024 873.792 1024z" p-id="7027"></path></svg>